<svg width="380" height="380" viewBox="0 0 380 380" fill="none" xmlns="http://www.w3.org/2000/svg">
<g clip-path="url(#clip0_278_24)">
<path d="M151.765 228.788C151.765 228.788 398.093 252.581 376.123 246.362C354.153 240.142 347.177 180.108 308.966 163.386C279.697 150.577 227.305 159.089 227.305 159.089C227.305 159.089 239.245 111.438 231.198 82.6076C220.139 42.983 167.678 25.5556 161.438 3.50051C155.198 -18.5546 151.765 228.788 151.765 228.788Z" fill="#F5F5F5"/>
<path d="M157.714 219.644C158.924 224.788 92.7143 395.144 95.7141 378.144C98.7138 361.144 60.0279 336.653 61.2141 305.144C62.1226 281.008 85.2141 248.144 85.2141 248.144C85.2141 248.144 48.743 240.602 31.714 225.644C8.30904 205.085 13.7137 163.644 0.714048 152.144C-12.2856 140.644 156.504 214.5 157.714 219.644Z" fill="url(#paint0_linear_278_24)"/>
</g>
<defs>
<linearGradient id="paint0_linear_278_24" x1="78.8585" y1="151" x2="102.504" y2="469" gradientUnits="userSpaceOnUse">
<stop stop-color="#FFF6DC"/>
<stop offset="1" stop-color="#16A085"/>
</linearGradient>
<clipPath id="clip0_278_24">
<rect width="380" height="380" fill="white"/>
</clipPath>
</defs>
</svg>
